<svg width="200" height="200" viewBox="0 0 90 90" xmlns="http://www.w3.org/2000/svg">
	<rect width="90" height="90" rx="45" fill="#85C1E9" />
	<g transform="rotate(-8 45 45)">
		<ellipse cx="45" cy="45" rx="25" ry="22" fill="white" />
		<ellipse cx="45" cy="48" rx="23" ry="18" fill="#E17055" opacity="0.1" />
		<path d="M 31 42 Q 35 40 39 42" stroke="#E17055" stroke-width="2.5" fill="none" stroke-linecap="round" />
		<path d="M 51 42 Q 55 40 59 42" stroke="#E17055" stroke-width="2.5" fill="none" stroke-linecap="round" />
		<path d="M 37 53 L 53 53" stroke="#E17055" stroke-width="2.5" fill="none" stroke-linecap="round" />
	</g>
	<g>
		<path d="M 40 40 L 50 40" stroke="#E17055" stroke-width="2" stroke-linecap="round" />
		<rect x="25" y="36" width="15" height="10" rx="2" fill="#E17055" opacity="0.9" />
		<rect x="50" y="36" width="15" height="10" rx="2" fill="#E17055" opacity="0.9" />
		<rect x="27" y="38" width="4" height="2" rx="1" fill="white" opacity="0.4" />
		<rect x="52" y="38" width="4" height="2" rx="1" fill="white" opacity="0.4" />
	</g>
	<g transform="translate(65, 65)">
		<circle cx="8" cy="8" r="10" fill="#E17055" />
		<text x="8" y="12" text-anchor="middle" font-size="11" font-weight="bold" fill="white" font-family="system-ui, sans-serif">T</text>
	</g>
</svg>
