<svg width="200" height="200" viewBox="0 0 90 90" xmlns="http://www.w3.org/2000/svg">
	<rect width="90" height="90" rx="45" fill="#FF7F50" />
	<g transform="rotate(5 45 45)">
		<ellipse cx="45" cy="45" rx="25" ry="22" fill="white" />
		<ellipse cx="45" cy="48" rx="23" ry="18" fill="#6C5CE7" opacity="0.1" />
		<circle cx="35" cy="42" r="5" fill="#6C5CE7" />
		<circle cx="55" cy="42" r="5" fill="#6C5CE7" />
		<circle cx="33" cy="40" r="1.5" fill="white" />
		<circle cx="53" cy="40" r="1.5" fill="white" />
		<path d="M 32 52 Q 45 65 58 52" stroke="#6C5CE7" stroke-width="2.5" fill="none" stroke-linecap="round" />
		<ellipse cx="28" cy="50" rx="4" ry="2.5" fill="#FFB6C1" opacity="0.5" />
		<ellipse cx="62" cy="50" rx="4" ry="2.5" fill="#FFB6C1" opacity="0.5" />
	</g>
	<g>
		<path d="M 25 28 L 28 18 L 37 24 L 45 12 L 53 24 L 62 18 L 65 28 Z" fill="#FFD700" stroke="#DAA520" stroke-width="1" />
		<circle cx="45" cy="20" r="2.5" fill="#FF6B6B" />
		<circle cx="33" cy="22" r="2" fill="#4ECDC4" />
		<circle cx="57" cy="22" r="2" fill="#4ECDC4" />
	</g>
	<g transform="translate(65, 65)">
		<circle cx="8" cy="8" r="10" fill="#6C5CE7" />
		<text x="8" y="12" text-anchor="middle" font-size="11" font-weight="bold" fill="white" font-family="system-ui, sans-serif">T</text>
	</g>
</svg>
