<svg width="700" height="200" viewBox="0 0 700 200" xmlns="http://www.w3.org/2000/svg">
	<rect width="700" height="200" fill="#1a1a2e" rx="12" />
	<text x="350" y="30" text-anchor="middle" font-size="18" fill="white" font-family="system-ui, sans-serif" font-weight="600">Tempo Wallet Avatars</text>
	
	<!-- Avatar 1: 0x195d... - Chill + Sunglasses -->
	<g transform="translate(55, 50)">
		<rect width="90" height="90" rx="45" fill="#85C1E9" />
		<g transform="rotate(-8 45 45)">
			<ellipse cx="45" cy="45" rx="25" ry="22" fill="white" />
			<ellipse cx="45" cy="48" rx="23" ry="18" fill="#E17055" opacity="0.1" />
		</g>
		<g>
			<path d="M 40 40 L 50 40" stroke="#E17055" stroke-width="2" stroke-linecap="round" />
			<rect x="25" y="36" width="15" height="10" rx="2" fill="#E17055" opacity="0.9" />
			<rect x="50" y="36" width="15" height="10" rx="2" fill="#E17055" opacity="0.9" />
		</g>
		<path d="M 38 54 Q 45 58 52 54" stroke="#E17055" stroke-width="2" fill="none" stroke-linecap="round" />
		<g transform="translate(65, 65)">
			<circle cx="8" cy="8" r="10" fill="#E17055" />
			<text x="8" y="12" text-anchor="middle" font-size="11" font-weight="bold" fill="white" font-family="system-ui">T</text>
		</g>
	</g>
	<text x="100" y="160" text-anchor="middle" font-size="10" fill="#888" font-family="monospace">0x195d...e31d</text>
	
	<!-- Avatar 2: 0xe217... - Excited + Crown -->
	<g transform="translate(165, 50)">
		<rect width="90" height="90" rx="45" fill="#FF7F50" />
		<g transform="rotate(5 45 45)">
			<ellipse cx="45" cy="45" rx="25" ry="22" fill="white" />
			<circle cx="35" cy="42" r="5" fill="#6C5CE7" />
			<circle cx="55" cy="42" r="5" fill="#6C5CE7" />
			<circle cx="33" cy="40" r="1.5" fill="white" />
			<circle cx="53" cy="40" r="1.5" fill="white" />
			<path d="M 32 52 Q 45 65 58 52" stroke="#6C5CE7" stroke-width="2.5" fill="none" stroke-linecap="round" />
			<ellipse cx="28" cy="50" rx="4" ry="2.5" fill="#FFB6C1" opacity="0.5" />
			<ellipse cx="62" cy="50" rx="4" ry="2.5" fill="#FFB6C1" opacity="0.5" />
		</g>
		<g>
			<path d="M 25 28 L 28 18 L 37 24 L 45 12 L 53 24 L 62 18 L 65 28 Z" fill="#FFD700" stroke="#DAA520" stroke-width="1" />
			<circle cx="45" cy="20" r="2.5" fill="#FF6B6B" />
			<circle cx="33" cy="22" r="2" fill="#4ECDC4" />
			<circle cx="57" cy="22" r="2" fill="#4ECDC4" />
		</g>
		<g transform="translate(65, 65)">
			<circle cx="8" cy="8" r="10" fill="#6C5CE7" />
			<text x="8" y="12" text-anchor="middle" font-size="11" font-weight="bold" fill="white" font-family="system-ui">T</text>
		</g>
	</g>
	<text x="210" y="160" text-anchor="middle" font-size="10" fill="#888" font-family="monospace">0xe217...2fd6</text>
	
	<!-- Avatar 3: vitalik - Happy + Headphones -->
	<g transform="translate(275, 50)">
		<rect width="90" height="90" rx="45" fill="#BB8FCE" />
		<g transform="rotate(-3 45 45)">
			<ellipse cx="45" cy="45" rx="25" ry="22" fill="white" />
			<ellipse cx="35" cy="42" rx="4" ry="3" fill="#0984E3" />
			<ellipse cx="55" cy="42" rx="4" ry="3" fill="#0984E3" />
			<path d="M 35 52 Q 45 60 55 52" stroke="#0984E3" stroke-width="2.5" fill="none" stroke-linecap="round" />
			<ellipse cx="28" cy="50" rx="4" ry="2.5" fill="#FFB6C1" opacity="0.5" />
			<ellipse cx="62" cy="50" rx="4" ry="2.5" fill="#FFB6C1" opacity="0.5" />
		</g>
		<g>
			<path d="M 20 40 Q 20 15 45 12 Q 70 15 70 40" stroke="#0984E3" stroke-width="4" fill="none" />
			<ellipse cx="20" cy="42" rx="7" ry="9" fill="#0984E3" />
			<ellipse cx="70" cy="42" rx="7" ry="9" fill="#0984E3" />
			<ellipse cx="20" cy="42" rx="4" ry="6" fill="white" opacity="0.3" />
			<ellipse cx="70" cy="42" rx="4" ry="6" fill="white" opacity="0.3" />
		</g>
		<g transform="translate(65, 65)">
			<circle cx="8" cy="8" r="10" fill="#0984E3" />
			<text x="8" y="12" text-anchor="middle" font-size="11" font-weight="bold" fill="white" font-family="system-ui">T</text>
		</g>
	</g>
	<text x="320" y="160" text-anchor="middle" font-size="10" fill="#888" font-family="monospace">0xd8dA...6045</text>
	
	<!-- Avatar 4: cafebabe - Zen + Hat -->
	<g transform="translate(385, 50)">
		<rect width="90" height="90" rx="45" fill="#F8B500" />
		<g transform="rotate(11 45 45)">
			<ellipse cx="45" cy="45" rx="25" ry="22" fill="white" />
			<path d="M 31 42 Q 35 38 39 42" stroke="#00B894" stroke-width="2.5" fill="none" stroke-linecap="round" />
			<path d="M 51 42 Q 55 38 59 42" stroke="#00B894" stroke-width="2.5" fill="none" stroke-linecap="round" />
			<path d="M 38 54 Q 45 58 52 54" stroke="#00B894" stroke-width="2" fill="none" stroke-linecap="round" />
		</g>
		<g>
			<ellipse cx="45" cy="22" rx="22" ry="10" fill="#00B894" />
			<rect x="23" y="18" width="44" height="8" fill="#00B894" />
			<circle cx="45" cy="14" r="5" fill="white" opacity="0.8" />
		</g>
		<g transform="translate(65, 65)">
			<circle cx="8" cy="8" r="10" fill="#00B894" />
			<text x="8" y="12" text-anchor="middle" font-size="11" font-weight="bold" fill="white" font-family="system-ui">T</text>
		</g>
	</g>
	<text x="430" y="160" text-anchor="middle" font-size="10" fill="#888" font-family="monospace">0xcafe...babe</text>
	
	<!-- Avatar 5: deadbeef - Cool + Bowtie -->
	<g transform="translate(495, 50)">
		<rect width="90" height="90" rx="45" fill="#DDA0DD" />
		<g transform="rotate(-12 45 45)">
			<ellipse cx="45" cy="45" rx="25" ry="22" fill="white" />
			<line x1="31" y1="42" x2="39" y2="42" stroke="#E84393" stroke-width="2.5" stroke-linecap="round" />
			<line x1="51" y1="42" x2="59" y2="42" stroke="#E84393" stroke-width="2.5" stroke-linecap="round" />
			<path d="M 38 52 Q 48 56 58 52" stroke="#E84393" stroke-width="2.5" fill="none" stroke-linecap="round" />
		</g>
		<g>
			<path d="M 45 68 L 32 62 L 32 74 L 45 68 L 58 62 L 58 74 Z" fill="#E84393" />
			<circle cx="45" cy="68" r="3" fill="white" opacity="0.5" />
		</g>
		<g transform="translate(65, 65)">
			<circle cx="8" cy="8" r="10" fill="#E84393" />
			<text x="8" y="12" text-anchor="middle" font-size="11" font-weight="bold" fill="white" font-family="system-ui">T</text>
		</g>
	</g>
	<text x="540" y="160" text-anchor="middle" font-size="10" fill="#888" font-family="monospace">0xdead...beef</text>
	
	<!-- Avatar 6: 12345678 - Happy (no accessory) -->
	<g transform="translate(605, 50)">
		<rect width="90" height="90" rx="45" fill="#4ECDC4" />
		<g transform="rotate(7 45 45)">
			<ellipse cx="45" cy="45" rx="25" ry="22" fill="white" />
			<ellipse cx="35" cy="42" rx="4" ry="3" fill="#FDCB6E" />
			<ellipse cx="55" cy="42" rx="4" ry="3" fill="#FDCB6E" />
			<path d="M 35 52 Q 45 60 55 52" stroke="#FDCB6E" stroke-width="2.5" fill="none" stroke-linecap="round" />
			<ellipse cx="28" cy="50" rx="4" ry="2.5" fill="#FFB6C1" opacity="0.5" />
			<ellipse cx="62" cy="50" rx="4" ry="2.5" fill="#FFB6C1" opacity="0.5" />
		</g>
		<g transform="translate(65, 65)">
			<circle cx="8" cy="8" r="10" fill="#FDCB6E" />
			<text x="8" y="12" text-anchor="middle" font-size="11" font-weight="bold" fill="white" font-family="system-ui">T</text>
		</g>
	</g>
	<text x="650" y="160" text-anchor="middle" font-size="10" fill="#888" font-family="monospace">0x1234...5678</text>
	
	<text x="350" y="185" text-anchor="middle" font-size="11" fill="#666" font-family="system-ui, sans-serif">Each wallet address generates a unique avatar with different expressions, colors, and accessories</text>
</svg>
