<svg width="200" height="200" viewBox="0 0 90 90" xmlns="http://www.w3.org/2000/svg">
	<rect width="90" height="90" rx="45" fill="#BB8FCE" />
	<g transform="rotate(-3 45 45)">
		<ellipse cx="45" cy="45" rx="25" ry="22" fill="white" />
		<ellipse cx="45" cy="48" rx="23" ry="18" fill="#0984E3" opacity="0.1" />
		<ellipse cx="35" cy="42" rx="4" ry="3" fill="#0984E3" />
		<ellipse cx="55" cy="42" rx="4" ry="3" fill="#0984E3" />
		<path d="M 35 52 Q 45 60 55 52" stroke="#0984E3" stroke-width="2.5" fill="none" stroke-linecap="round" />
		<ellipse cx="28" cy="50" rx="4" ry="2.5" fill="#FFB6C1" opacity="0.5" />
		<ellipse cx="62" cy="50" rx="4" ry="2.5" fill="#FFB6C1" opacity="0.5" />
	</g>
	<g>
		<path d="M 20 40 Q 20 15 45 12 Q 70 15 70 40" stroke="#0984E3" stroke-width="4" fill="none" />
		<ellipse cx="20" cy="42" rx="7" ry="9" fill="#0984E3" />
		<ellipse cx="70" cy="42" rx="7" ry="9" fill="#0984E3" />
		<ellipse cx="20" cy="42" rx="4" ry="6" fill="white" opacity="0.3" />
		<ellipse cx="70" cy="42" rx="4" ry="6" fill="white" opacity="0.3" />
	</g>
	<g transform="translate(65, 65)">
		<circle cx="8" cy="8" r="10" fill="#0984E3" />
		<text x="8" y="12" text-anchor="middle" font-size="11" font-weight="bold" fill="white" font-family="system-ui, sans-serif">T</text>
	</g>
</svg>
